<?xml version="1.0" encoding="UTF-8"?>
<!DOCTYPE svg PUBLIC "-//W3C//DTD SVG 1.1//EN" "http://www.w3.org/Graphics/SVG/1.1/DTD/svg11.dtd">
<!-- Creator: CorelDRAW 2021.5 -->
<svg xmlns="http://www.w3.org/2000/svg" xml:space="preserve" width="226.37mm" height="96.8054mm" version="1.1" style="shape-rendering:geometricPrecision; text-rendering:geometricPrecision; image-rendering:optimizeQuality; fill-rule:evenodd; clip-rule:evenodd"
viewBox="0 0 7462.52 3191.29"
 xmlns:xlink="http://www.w3.org/1999/xlink"
 xmlns:xodm="http://www.corel.com/coreldraw/odm/2003">
 <defs>
  <style type="text/css">
   <![CDATA[
    .str0 {stroke:black;stroke-width:6.59;stroke-miterlimit:22.9256}
    .fil0 {fill:black}
    .fil1 {fill:white;fill-rule:nonzero}
   ]]>
  </style>
 </defs>
 <g id="Katman_x0020_1">
  <metadata id="CorelCorpID_0Corel-Layer"/>
  <path class="fil0 str0" d="M497.79 3.3l6466.95 0c271.97,0 494.49,222.52 494.49,494.49l0 2195.72c0,271.97 -222.52,494.49 -494.49,494.49l-6466.95 0c-271.97,0 -494.49,-222.52 -494.49,-494.49l0 -2195.72c0,-271.97 222.52,-494.49 494.49,-494.49zm445.58 1082.57l269.13 0c70.01,0 130.06,6.41 180.13,19.46 50.31,13.05 95.64,37.5 136.46,73.1 106.08,90.89 159.25,229.26 159.25,414.61 0,61.23 -5.22,117 -15.9,167.55 -10.68,50.55 -27.29,96.12 -49.36,136.7 -22.31,40.58 -50.79,76.9 -85.68,108.93 -27.29,24.45 -57.2,44.14 -89.71,58.86 -32.51,14.95 -67.4,25.4 -104.66,31.33 -37.26,5.93 -79.51,9.02 -126.26,9.02l-269.13 0c-37.5,0 -65.74,-5.7 -84.96,-17.09 -18.99,-11.39 -31.32,-27.29 -37.02,-47.94 -5.93,-20.65 -8.78,-47.46 -8.78,-80.22l0 -747.82c0,-44.38 9.97,-76.66 29.9,-96.59 19.93,-19.94 52.21,-29.9 96.59,-29.9zm79.98 163.76l0 692.05 156.63 0c34.18,0 61.23,-0.95 80.69,-2.85 19.46,-1.9 39.64,-6.41 60.52,-13.77 20.89,-7.59 38.92,-18.04 54.11,-31.33 69.06,-58.38 103.71,-159.01 103.71,-301.88 0,-100.63 -15.19,-176.1 -45.57,-226.17 -30.38,-50.08 -67.87,-81.88 -112.26,-95.64 -44.62,-13.53 -98.49,-20.41 -161.38,-20.41l-136.46 0zm1517.71 -4.27l-465.16 0 0 250.62 428.38 0c31.56,0 55.06,7.12 70.48,21.12 15.67,14 23.26,32.75 23.26,55.77 0,23.02 -7.6,42.01 -22.79,56.48 -15.42,14.48 -38.92,21.83 -70.96,21.83l-428.38 0 0 290.49 481.06 0c32.51,0 56.96,7.59 73.33,22.55 16.61,14.95 24.92,35.13 24.92,60.04 0,23.97 -8.31,43.67 -24.92,58.62 -16.37,14.95 -40.82,22.55 -73.33,22.55l-561.04 0c-44.86,0 -77.13,-9.97 -96.83,-29.9 -19.7,-19.93 -29.67,-52.21 -29.67,-96.59l0 -766.57c0,-29.67 4.51,-53.87 13.29,-72.62 8.78,-18.75 22.55,-32.51 41.29,-41.06 18.75,-8.54 42.72,-12.81 71.91,-12.81l545.14 0c32.99,0 57.43,7.36 73.33,21.83 15.9,14.72 23.97,33.94 23.97,57.43 0,24.21 -8.07,43.67 -23.97,58.38 -15.9,14.48 -40.35,21.83 -73.33,21.83zm429.33 -41.06l230.68 683.27 231.4 -688.01c12.1,-36.31 21.12,-61.47 27.06,-75.47 6.17,-14.24 16.14,-26.82 29.9,-38.21 14,-11.39 32.99,-17.09 56.96,-17.09 17.56,0 33.94,4.51 49.13,13.29 14.95,8.78 26.82,20.41 35.36,35.13 8.54,14.48 12.81,29.19 12.81,44.14 0,9.97 -1.42,21.12 -4.27,32.99 -2.61,11.63 -6.17,23.26 -10.2,34.65 -4.27,11.39 -8.54,23.02 -12.58,35.13l-246.58 665.94c-9.02,25.39 -17.8,49.6 -26.58,72.62 -8.78,22.78 -18.99,42.95 -30.62,60.52 -11.39,17.33 -26.82,31.56 -46.04,42.72 -19.22,11.16 -42.72,16.61 -70.48,16.61 -28,0 -51.5,-5.46 -70.73,-16.37 -19.22,-10.92 -34.65,-25.16 -46.52,-42.96 -11.63,-18.04 -22.07,-38.21 -30.85,-60.99 -8.78,-22.55 -17.56,-46.76 -26.34,-72.15l-242.55 -660.48c-4.27,-11.86 -8.54,-23.73 -12.82,-35.36 -4.51,-11.63 -8.07,-24.21 -11.16,-37.5 -3.09,-13.53 -4.51,-24.92 -4.51,-34.18 0,-23.49 9.49,-45.09 28.48,-64.55 18.99,-19.46 42.95,-29.19 71.67,-29.19 35.13,0 60.04,10.68 74.52,32.28 14.72,21.6 29.67,56.01 44.86,103.24zm1500.15 41.06l-465.16 0 0 250.62 428.38 0c31.56,0 55.06,7.12 70.48,21.12 15.67,14 23.26,32.75 23.26,55.77 0,23.02 -7.6,42.01 -22.79,56.48 -15.42,14.48 -38.92,21.83 -70.96,21.83l-428.38 0 0 290.49 481.06 0c32.51,0 56.96,7.59 73.33,22.55 16.61,14.95 24.92,35.13 24.92,60.04 0,23.97 -8.31,43.67 -24.92,58.62 -16.37,14.95 -40.82,22.55 -73.33,22.55l-561.04 0c-44.86,0 -77.13,-9.97 -96.83,-29.9 -19.7,-19.93 -29.67,-52.21 -29.67,-96.59l0 -766.57c0,-29.67 4.51,-53.87 13.29,-72.62 8.78,-18.75 22.55,-32.51 41.29,-41.06 18.75,-8.54 42.72,-12.81 71.91,-12.81l545.14 0c32.99,0 57.43,7.36 73.33,21.83 15.9,14.72 23.97,33.94 23.97,57.43 0,24.21 -8.07,43.67 -23.97,58.38 -15.9,14.48 -40.35,21.83 -73.33,21.83zm555.58 424.34l-72.38 0 0 327.04c0,43.19 -9.49,74.76 -28.48,95.17 -18.99,20.41 -43.91,30.62 -74.28,30.62 -32.99,0 -58.62,-10.68 -76.66,-32.04 -18.04,-21.36 -27.06,-52.45 -27.06,-93.75l0 -784.37c0,-44.38 9.97,-76.66 29.9,-96.59 19.93,-19.94 52.21,-29.9 96.59,-29.9l335.82 0c46.28,0 85.91,1.9 118.9,5.93 32.99,4.03 62.66,11.86 89,23.97 32.04,13.53 60.28,32.75 84.96,57.67 24.44,25.16 43.19,54.35 55.77,87.34 12.81,33.22 19.22,68.35 19.22,105.61 0,75.94 -21.36,136.7 -64.32,182.27 -42.95,45.33 -107.98,77.61 -195.08,96.59 36.55,19.46 71.67,48.18 105.14,86.15 33.23,37.97 63.13,78.55 89.24,121.28 26.11,42.95 46.52,81.4 61.23,116.05 14.48,34.41 21.83,58.15 21.83,71.2 0,13.29 -4.27,26.58 -12.81,39.87 -8.54,13.29 -20.17,23.73 -35.13,31.33 -14.71,7.6 -32.04,11.39 -51.5,11.39 -23.02,0 -42.48,-5.46 -58.38,-16.37 -15.67,-10.92 -29.19,-24.68 -40.58,-41.3 -11.39,-16.61 -26.82,-41.29 -46.28,-73.57l-82.83 -137.65c-29.67,-50.31 -56.25,-88.76 -79.5,-115.1 -23.5,-26.58 -47.23,-44.62 -71.44,-54.35 -23.97,-9.73 -54.35,-14.48 -90.9,-14.48zm118.19 -428.61l-190.57 0 0 280.52 184.88 0c49.6,0 91.37,-4.27 125.31,-12.81 33.7,-8.54 59.57,-23.26 77.37,-43.91 17.8,-20.65 26.82,-49.13 26.82,-85.2 0,-28.48 -7.12,-53.4 -21.6,-74.99 -14.24,-21.6 -34.18,-37.74 -59.81,-48.41 -23.97,-10.21 -71.43,-15.19 -142.4,-15.19zm756.37 -155.21l269.13 0c70.01,0 130.06,6.41 180.13,19.46 50.31,13.05 95.64,37.5 136.46,73.1 106.08,90.89 159.25,229.26 159.25,414.61 0,61.23 -5.22,117 -15.9,167.55 -10.68,50.55 -27.29,96.12 -49.36,136.7 -22.31,40.58 -50.79,76.9 -85.68,108.93 -27.29,24.45 -57.2,44.14 -89.71,58.86 -32.51,14.95 -67.4,25.4 -104.66,31.33 -37.26,5.93 -79.51,9.02 -126.26,9.02l-269.13 0c-37.5,0 -65.74,-5.7 -84.96,-17.09 -18.99,-11.39 -31.32,-27.29 -37.02,-47.94 -5.93,-20.65 -8.78,-47.46 -8.78,-80.22l0 -747.82c0,-44.38 9.97,-76.66 29.9,-96.59 19.93,-19.94 52.21,-29.9 96.59,-29.9zm79.98 163.76l0 692.05 156.63 0c34.18,0 61.23,-0.95 80.69,-2.85 19.46,-1.9 39.64,-6.41 60.52,-13.77 20.89,-7.59 38.92,-18.04 54.11,-31.33 69.06,-58.38 103.71,-159.01 103.71,-301.88 0,-100.63 -15.19,-176.1 -45.57,-226.17 -30.38,-50.08 -67.87,-81.88 -112.26,-95.64 -44.62,-13.53 -98.49,-20.41 -161.38,-20.41l-136.46 0z"/>
  <path class="fil1" d="M943.37 1085.87l269.13 0c70.01,0 130.06,6.41 180.13,19.46 50.31,13.05 95.64,37.5 136.46,73.1 106.08,90.89 159.25,229.26 159.25,414.61 0,61.23 -5.22,117 -15.9,167.55 -10.68,50.55 -27.29,96.12 -49.36,136.7 -22.31,40.58 -50.79,76.9 -85.68,108.93 -27.29,24.45 -57.2,44.14 -89.71,58.86 -32.51,14.95 -67.4,25.4 -104.66,31.33 -37.26,5.93 -79.51,9.02 -126.26,9.02l-269.13 0c-37.5,0 -65.74,-5.7 -84.96,-17.09 -18.99,-11.39 -31.32,-27.29 -37.02,-47.94 -5.93,-20.65 -8.78,-47.46 -8.78,-80.22l0 -747.82c0,-44.38 9.97,-76.66 29.9,-96.59 19.93,-19.94 52.21,-29.9 96.59,-29.9zm79.98 163.76l0 692.05 156.63 0c34.18,0 61.23,-0.95 80.69,-2.85 19.46,-1.9 39.64,-6.41 60.52,-13.77 20.89,-7.59 38.92,-18.04 54.11,-31.33 69.06,-58.38 103.71,-159.01 103.71,-301.88 0,-100.63 -15.19,-176.1 -45.57,-226.17 -30.38,-50.08 -67.87,-81.88 -112.26,-95.64 -44.62,-13.53 -98.49,-20.41 -161.38,-20.41l-136.46 0zm1517.71 -4.27l-465.16 0 0 250.62 428.38 0c31.56,0 55.06,7.12 70.48,21.12 15.67,14 23.26,32.75 23.26,55.77 0,23.02 -7.6,42.01 -22.79,56.48 -15.42,14.48 -38.92,21.83 -70.96,21.83l-428.38 0 0 290.49 481.06 0c32.51,0 56.96,7.59 73.33,22.55 16.61,14.95 24.92,35.13 24.92,60.04 0,23.97 -8.31,43.67 -24.92,58.62 -16.37,14.95 -40.82,22.55 -73.33,22.55l-561.04 0c-44.86,0 -77.13,-9.97 -96.83,-29.9 -19.7,-19.93 -29.67,-52.21 -29.67,-96.59l0 -766.57c0,-29.67 4.51,-53.87 13.29,-72.62 8.78,-18.75 22.55,-32.51 41.29,-41.06 18.75,-8.54 42.72,-12.81 71.91,-12.81l545.14 0c32.99,0 57.43,7.36 73.33,21.83 15.9,14.72 23.97,33.94 23.97,57.43 0,24.21 -8.07,43.67 -23.97,58.38 -15.9,14.48 -40.35,21.83 -73.33,21.83zm429.33 -41.06l230.68 683.27 231.4 -688.01c12.1,-36.31 21.12,-61.47 27.06,-75.47 6.17,-14.24 16.14,-26.82 29.9,-38.21 14,-11.39 32.99,-17.09 56.96,-17.09 17.56,0 33.94,4.51 49.13,13.29 14.95,8.78 26.82,20.41 35.36,35.13 8.54,14.48 12.81,29.19 12.81,44.14 0,9.97 -1.42,21.12 -4.27,32.99 -2.61,11.63 -6.17,23.26 -10.2,34.65 -4.27,11.39 -8.54,23.02 -12.58,35.13l-246.58 665.94c-9.02,25.39 -17.8,49.6 -26.58,72.62 -8.78,22.78 -18.99,42.95 -30.62,60.52 -11.39,17.33 -26.82,31.56 -46.04,42.72 -19.22,11.16 -42.72,16.61 -70.48,16.61 -28,0 -51.5,-5.46 -70.73,-16.37 -19.22,-10.92 -34.65,-25.16 -46.52,-42.96 -11.63,-18.04 -22.07,-38.21 -30.85,-60.99 -8.78,-22.55 -17.56,-46.76 -26.34,-72.15l-242.55 -660.48c-4.27,-11.86 -8.54,-23.73 -12.82,-35.36 -4.51,-11.63 -8.07,-24.21 -11.16,-37.5 -3.09,-13.53 -4.51,-24.92 -4.51,-34.18 0,-23.49 9.49,-45.09 28.48,-64.55 18.99,-19.46 42.95,-29.19 71.67,-29.19 35.13,0 60.04,10.68 74.52,32.28 14.72,21.6 29.67,56.01 44.86,103.24zm1500.15 41.06l-465.16 0 0 250.62 428.38 0c31.56,0 55.06,7.12 70.48,21.12 15.67,14 23.26,32.75 23.26,55.77 0,23.02 -7.6,42.01 -22.79,56.48 -15.42,14.48 -38.92,21.83 -70.96,21.83l-428.38 0 0 290.49 481.06 0c32.51,0 56.96,7.59 73.33,22.55 16.61,14.95 24.92,35.13 24.92,60.04 0,23.97 -8.31,43.67 -24.92,58.62 -16.37,14.95 -40.82,22.55 -73.33,22.55l-561.04 0c-44.86,0 -77.13,-9.97 -96.83,-29.9 -19.7,-19.93 -29.67,-52.21 -29.67,-96.59l0 -766.57c0,-29.67 4.51,-53.87 13.29,-72.62 8.78,-18.75 22.55,-32.51 41.29,-41.06 18.75,-8.54 42.72,-12.81 71.91,-12.81l545.14 0c32.99,0 57.43,7.36 73.33,21.83 15.9,14.72 23.97,33.94 23.97,57.43 0,24.21 -8.07,43.67 -23.97,58.38 -15.9,14.48 -40.35,21.83 -73.33,21.83zm555.58 424.34l-72.38 0 0 327.04c0,43.19 -9.49,74.76 -28.48,95.17 -18.99,20.41 -43.91,30.62 -74.28,30.62 -32.99,0 -58.62,-10.68 -76.66,-32.04 -18.04,-21.36 -27.06,-52.45 -27.06,-93.75l0 -784.37c0,-44.38 9.97,-76.66 29.9,-96.59 19.93,-19.94 52.21,-29.9 96.59,-29.9l335.82 0c46.28,0 85.91,1.9 118.9,5.93 32.99,4.03 62.66,11.86 89,23.97 32.04,13.53 60.28,32.75 84.96,57.67 24.44,25.16 43.19,54.35 55.77,87.34 12.81,33.22 19.22,68.35 19.22,105.61 0,75.94 -21.36,136.7 -64.32,182.27 -42.95,45.33 -107.98,77.61 -195.08,96.59 36.55,19.46 71.67,48.18 105.14,86.15 33.23,37.97 63.13,78.55 89.24,121.28 26.11,42.95 46.52,81.4 61.23,116.05 14.48,34.41 21.83,58.15 21.83,71.2 0,13.29 -4.27,26.58 -12.81,39.87 -8.54,13.29 -20.17,23.73 -35.13,31.33 -14.71,7.6 -32.04,11.39 -51.5,11.39 -23.02,0 -42.48,-5.46 -58.38,-16.37 -15.67,-10.92 -29.19,-24.68 -40.58,-41.3 -11.39,-16.61 -26.82,-41.29 -46.28,-73.57l-82.83 -137.65c-29.67,-50.31 -56.25,-88.76 -79.5,-115.1 -23.5,-26.58 -47.23,-44.62 -71.44,-54.35 -23.97,-9.73 -54.35,-14.48 -90.9,-14.48zm118.19 -428.61l-190.57 0 0 280.52 184.88 0c49.6,0 91.37,-4.27 125.31,-12.81 33.7,-8.54 59.57,-23.26 77.37,-43.91 17.8,-20.65 26.82,-49.13 26.82,-85.2 0,-28.48 -7.12,-53.4 -21.6,-74.99 -14.24,-21.6 -34.18,-37.74 -59.81,-48.41 -23.97,-10.21 -71.43,-15.19 -142.4,-15.19zm756.37 -155.21l269.13 0c70.01,0 130.06,6.41 180.13,19.46 50.31,13.05 95.64,37.5 136.46,73.1 106.08,90.89 159.25,229.26 159.25,414.61 0,61.23 -5.22,117 -15.9,167.55 -10.68,50.55 -27.29,96.12 -49.36,136.7 -22.31,40.58 -50.79,76.9 -85.68,108.93 -27.29,24.45 -57.2,44.14 -89.71,58.86 -32.51,14.95 -67.4,25.4 -104.66,31.33 -37.26,5.93 -79.51,9.02 -126.26,9.02l-269.13 0c-37.5,0 -65.74,-5.7 -84.96,-17.09 -18.99,-11.39 -31.32,-27.29 -37.02,-47.94 -5.93,-20.65 -8.78,-47.46 -8.78,-80.22l0 -747.82c0,-44.38 9.97,-76.66 29.9,-96.59 19.93,-19.94 52.21,-29.9 96.59,-29.9zm79.98 163.76l0 692.05 156.63 0c34.18,0 61.23,-0.95 80.69,-2.85 19.46,-1.9 39.64,-6.41 60.52,-13.77 20.89,-7.59 38.92,-18.04 54.11,-31.33 69.06,-58.38 103.71,-159.01 103.71,-301.88 0,-100.63 -15.19,-176.1 -45.57,-226.17 -30.38,-50.08 -67.87,-81.88 -112.26,-95.64 -44.62,-13.53 -98.49,-20.41 -161.38,-20.41l-136.46 0z"/>
 </g>
</svg>
